# xmcd
#
# Track frame offsets:
#	150
#	16287
#	35719
#	52853
#	75479
#	96678
#	122153
#	138725
#	160572
#	179482
#	190009
#	205362
#	229184
#	254902
#	265074
#	280081
#	294494
#	315202
#
# Disc length: 4354 seconds
#
# Revision: 0
# Processed by: cddbd v1.5.2PL0 Copyright (c) Steve Scherf et al.
# Submitted via: EasyCDDAExtractor 11.9.9.666
#
DISCID=04110012
DTITLE=Various Artist - Fear Candy 14
DYEAR=2005
DGENRE=Metal
TTITLE0=Mesuggah - Shed
TTITLE1=Nile - Lashed To The Slave Stick
TTITLE2=Napalm Death - Silence Is Deafening
TTITLE3=Isis - The Beginning And The End (Venetian Snares)
TTITLE4=Cephalic Carnage - Dying Will Be The Death Of Me
TTITLE5=Overkill - Love
TTITLE6=Aborted - Dead Wreckoning
TTITLE7=Trivium - Pull Harder On The Strings Of Your Martyr
TTITLE8=Bleed The Sky - Minion
TTITLE9=Modern Life Is War - D.E.A.D.R.A.M.O.N.E.S.
TTITLE10=Born From Pain - Rise Or Die
TTITLE11=Callisto - Worlds Collide
TTITLE12=With Passion - Train Wreck Orchestra
TTITLE13=Path Of No Return - Holocaust
TTITLE14=Zero Mentality - Traitor Of My Own
TTITLE15=Suicide Watch - In The Mouth Of Madness
TTITLE16=Grave Flowers - Save Me Or Destroy Me
TTITLE17=Thy Kingdom Come - From This Day
EXTD=
EXTT0=
EXTT1=
EXTT2=
EXTT3=
EXTT4=
EXTT5=
EXTT6=
EXTT7=
EXTT8=
EXTT9=
EXTT10=
EXTT11=
EXTT12=
EXTT13=
EXTT14=
EXTT15=
EXTT16=
EXTT17=
PLAYORDER=
